<svg width="440" height="281" xmlns="http://www.w3.org/2000/svg">

 <g>
  <title>background</title>
  <rect fill="none" id="canvas_background" height="283" width="442" y="-1" x="-1"/>
 </g>
 <g>
  <title>Layer 1</title>
  <path id="svg_1" fill="#E6E6E6" d="m432.6,280.525l-424.00039,0c-4.4,0 -8,-3.6 -8,-8l0,-264.00034c0,-4.4 3.6,-8 8,-8l424.00039,0c4.4,0 8,3.6 8,8l0,264.00034c0,4.4 -3.6,8 -8,8z"/>
  <path id="svg_2" fill="#262626" d="m86.1304,109.369c-6.12,2.601 -12.9285,9.869 -15.0705,19.049c-2.6775,11.551 8.568,16.447 9.486,14.84c1.071,-1.912 -1.989,-2.524 -2.6775,-8.491c-0.8415,-7.726 2.754,-16.447 7.344,-20.196c0.8415,-0.688 0.8415,0.306 0.8415,2.066c0,3.289 -0.153,32.436 -0.153,38.555c0,8.262 -0.306,10.864 -0.918,13.388c-0.612,2.601 -1.6065,4.361 -0.8415,5.049c0.8415,0.765 4.437,-1.071 6.5025,-3.978c2.5245,-3.519 3.366,-7.65 3.519,-12.24c0.153,-5.508 0.153,-14.229 0.153,-19.125c0,-4.59 0.0765,-17.901 -0.0765,-25.933c-0.0765,-1.989 -5.508,-4.055 -8.109,-2.984zm218.5606,38.633c-0.23,4.284 -1.148,7.649 -2.295,10.021c-2.295,4.59 -7.038,5.967 -9.027,-0.612c-1.071,-3.596 -1.148,-9.562 -0.383,-14.611c0.765,-5.126 3.06,-8.951 6.732,-8.568c3.672,0.382 5.355,5.049 4.973,13.77zm-61.583,26.621c-0.076,7.115 -1.147,13.388 -3.595,15.147c-3.443,2.601 -7.956,0.612 -7.038,-4.59c0.841,-4.59 4.819,-9.332 10.633,-15.07c0,0.077 0,1.377 0,4.513zm-0.994,-26.698c-0.23,3.901 -1.224,7.803 -2.295,10.022c-2.295,4.59 -7.038,6.043 -9.027,-0.612c-1.377,-4.514 -0.995,-10.328 -0.383,-14c0.842,-4.743 2.984,-9.18 6.732,-9.18c3.749,0.077 5.508,4.131 4.973,13.77zm-35.649,0c-0.23,4.131 -0.995,7.573 -2.295,10.098c-2.372,4.513 -6.962,5.967 -9.027,-0.612c-1.454,-4.743 -0.995,-11.169 -0.383,-14.688c0.918,-5.202 3.213,-8.874 6.732,-8.491c3.672,0.382 5.432,5.049 4.973,13.693zm163.557,4.82c-0.918,0 -1.301,0.917 -1.607,2.447c-1.147,5.355 -2.371,6.58 -3.978,6.58c-1.759,0 -3.366,-2.678 -3.748,-8.033c-0.306,-4.207 -0.306,-11.934 0.153,-19.584c0.076,-1.606 -0.383,-3.136 -4.59,-4.666c-1.836,-0.689 -4.437,-1.607 -5.814,1.53c-3.749,9.027 -5.202,16.141 -5.508,19.048c0,0.153 -0.23,0.153 -0.23,-0.153c-0.229,-2.295 -0.688,-6.579 -0.765,-15.453c0,-1.759 -0.382,-3.213 -2.295,-4.437c-1.224,-0.765 -4.972,-2.142 -6.349,-0.535c-1.148,1.377 -2.525,4.972 -3.978,9.256c-1.148,3.519 -1.913,5.89 -1.913,5.89c0,0 0,-9.409 0,-13.004c0,-1.377 -0.918,-1.836 -1.224,-1.913c-1.224,-0.382 -3.748,-0.994 -4.743,-0.994c-1.3,0 -1.606,0.688 -1.606,1.759c0,0.153 -0.23,12.393 -0.23,20.961c0,0.383 0,0.765 0,1.224c-0.688,3.978 -3.06,9.333 -5.584,9.333c-2.525,0 -3.749,-2.218 -3.749,-12.469c0,-5.967 0.153,-8.568 0.23,-12.852c0.076,-2.448 0.153,-4.361 0.153,-4.82c0,-1.3 -2.295,-1.989 -3.366,-2.218c-1.071,-0.23 -1.989,-0.383 -2.754,-0.306c-0.995,0.076 -1.76,0.765 -1.76,1.683c0,0.535 0,1.453 0,1.453c-1.3,-2.065 -3.442,-3.519 -4.896,-3.978c-3.825,-1.147 -7.803,-0.153 -10.863,4.055c-2.371,3.366 -3.825,7.114 -4.437,12.622c-0.382,3.978 -0.306,8.032 0.459,11.475c-0.918,3.825 -2.524,5.432 -4.36,5.432c-2.601,0 -4.514,-4.285 -4.284,-11.705c0.153,-4.896 1.147,-8.338 2.218,-13.311c0.459,-2.142 0.077,-3.213 -0.841,-4.284c-0.842,-0.994 -2.678,-1.453 -5.279,-0.841c-1.836,0.459 -4.513,0.918 -6.961,1.3c0,0 0.153,-0.612 0.229,-1.606c0.612,-5.432 -5.278,-4.973 -7.114,-3.213c-1.148,0.994 -1.913,2.218 -2.142,4.437c-0.459,3.442 2.371,5.125 2.371,5.125c-0.918,4.284 -3.213,9.792 -5.584,13.847c-1.224,2.142 -2.219,3.748 -3.443,5.431c0,-0.612 0,-1.301 0,-1.913c0,-8.95 0.077,-15.988 0.153,-18.512c0.077,-2.448 0.153,-4.361 0.153,-4.743c0,-0.995 -0.612,-1.301 -1.759,-1.836c-1.071,-0.383 -2.295,-0.689 -3.596,-0.765c-1.606,-0.153 -2.601,0.765 -2.601,1.759c0,0.23 0,1.377 0,1.377c-1.3,-2.065 -3.442,-3.519 -4.896,-3.978c-3.825,-1.147 -7.803,-0.153 -10.863,4.055c-2.371,3.366 -3.978,8.032 -4.437,12.546c-0.382,4.207 -0.306,7.803 0.23,10.786c-0.612,2.984 -2.372,6.12 -4.361,6.12c-2.524,0 -3.978,-2.218 -3.978,-12.469c0,-5.967 0.153,-8.568 0.23,-12.852c0.076,-2.448 0.153,-4.361 0.153,-4.82c0,-1.3 -2.295,-1.989 -3.366,-2.218c-1.148,-0.23 -2.066,-0.383 -2.831,-0.306c-0.994,0.076 -1.683,0.918 -1.683,1.606l0,1.53c-1.3,-2.065 -3.442,-3.519 -4.896,-3.978c-3.825,-1.147 -7.803,-0.076 -10.863,4.055c-1.989,2.754 -3.595,5.813 -4.437,12.469c-0.229,1.912 -0.306,3.749 -0.306,5.432c-0.765,4.819 -4.284,10.404 -7.114,10.404c-1.683,0 -3.29,-3.213 -3.29,-10.175c0,-9.18 0.536,-22.261 0.689,-23.562c0,0 3.595,-0.076 4.284,-0.076c1.759,0 3.442,0 5.814,-0.077c1.224,-0.076 2.371,-4.36 1.147,-4.896c-0.535,-0.229 -4.513,-0.459 -6.12,-0.459c-1.3,0 -4.972,-0.306 -4.972,-0.306c0,0 0.306,-8.721 0.382,-9.639c0.077,-0.765 -0.918,-1.147 -1.453,-1.377c-1.377,-0.612 -2.601,-0.841 -4.055,-1.147c-1.989,-0.383 -2.907,0 -3.136,1.683c-0.306,2.601 -0.383,10.174 -0.383,10.174c-1.453,0 -6.579,-0.306 -8.032,-0.306c-1.377,0 -2.831,5.967 -0.995,5.967c2.219,0.077 6.044,0.153 8.568,0.23c0,0 -0.076,13.311 -0.076,17.442c0,0.459 0,0.841 0,1.3c-1.377,7.267 -6.273,11.169 -6.273,11.169c1.071,-4.819 -1.071,-8.415 -4.973,-11.475c-1.453,-1.147 -4.284,-3.289 -7.42,-5.584c0,0 1.836,-1.836 3.442,-5.432c1.148,-2.601 1.224,-5.508 -1.606,-6.12c-4.667,-1.071 -8.492,2.372 -9.639,6.044c-0.918,2.83 -0.383,4.896 1.3,7.114c0.153,0.153 0.23,0.306 0.383,0.459c-1.071,2.065 -2.525,4.743 -3.749,6.885c-3.366,5.89 -5.967,10.557 -7.879,10.557c-1.53,0 -1.53,-4.743 -1.53,-9.103c0,-3.825 0.306,-9.563 0.535,-15.453c0.077,-1.989 -0.918,-3.06 -2.524,-4.055c-0.995,-0.612 -3.137,-1.836 -4.361,-1.836c-1.836,0 -7.191,0.23 -12.24,14.841c-0.612,1.836 -1.912,5.202 -1.912,5.202l0.076,-17.518c0,-0.383 -0.229,-0.842 -0.688,-1.071c-0.842,-0.459 -3.137,-1.377 -5.126,-1.377c-0.994,0 -1.453,0.459 -1.453,1.3l-0.153,27.387c0,2.066 0.076,4.514 0.229,5.585c0.23,1.071 0.536,1.912 0.918,2.448c0.383,0.535 0.918,0.917 1.683,1.07c0.765,0.153 4.743,0.689 4.973,-0.841c0.229,-1.836 0.229,-3.825 2.371,-11.169c3.29,-11.475 7.497,-17.136 9.563,-19.125c0.382,-0.382 0.765,-0.382 0.765,0.23c-0.077,2.524 -0.383,8.797 -0.612,14.152c-0.536,14.306 2.065,16.983 5.814,16.983c2.83,0 6.885,-2.831 11.169,-10.022c2.677,-4.437 5.278,-8.874 7.191,-12.01c1.3,1.224 2.754,2.525 4.207,3.902c3.366,3.213 4.514,6.273 3.749,9.18c-0.536,2.218 -2.678,4.513 -6.503,2.295c-1.071,-0.612 -1.606,-1.148 -2.677,-1.913c-0.612,-0.382 -1.53,-0.535 -2.066,-0.077c-1.453,1.071 -2.218,2.449 -2.677,4.132c-0.459,1.606 1.224,2.524 2.907,3.289c1.453,0.688 4.59,1.224 6.655,1.301c7.803,0.229 14.153,-3.749 18.513,-14.23c0.765,9.027 4.131,14.153 9.869,14.153c3.901,0 7.726,-4.973 9.409,-9.945c0.459,1.989 1.224,3.749 2.142,5.202c4.437,7.038 13.082,5.508 17.442,-0.459c1.377,-1.836 1.53,-2.525 1.53,-2.525c0.612,5.661 5.202,7.65 7.803,7.65c2.907,0 5.967,-1.377 8.033,-6.12c0.229,0.536 0.535,0.995 0.841,1.454c4.437,7.038 13.082,5.508 17.442,-0.459c0.23,-0.306 0.383,-0.536 0.536,-0.765l0.153,3.749c0,0 -2.448,2.294 -3.978,3.671c-6.732,6.12 -11.781,10.787 -12.164,16.219c-0.459,6.885 5.126,9.485 9.41,9.791c4.513,0.383 8.338,-2.141 10.71,-5.584c2.065,-3.06 3.442,-9.639 3.366,-16.218c-0.077,-2.601 -0.077,-5.967 -0.153,-9.486c2.371,-2.754 4.972,-6.196 7.42,-10.251c2.678,-4.437 5.508,-10.327 6.962,-14.917c0,0 2.448,-0.001 5.125,-0.154c0.842,-0.076 1.071,0.153 0.918,0.765c-0.153,0.765 -3.366,12.929 -0.459,21.038c1.989,5.508 6.426,7.344 9.027,7.344c3.06,0 6.044,-2.295 7.574,-5.814c0.153,0.382 0.382,0.765 0.612,1.071c4.437,7.038 13.081,5.508 17.442,-0.459c0.994,-1.377 1.53,-2.525 1.53,-2.525c0.918,5.891 5.508,7.65 8.109,7.65c2.754,0 5.278,-1.147 7.42,-6.043c0.077,2.219 0.23,3.978 0.459,4.513c0.153,0.306 0.918,0.765 1.454,0.995c2.524,0.918 5.049,0.459 5.967,0.306c0.688,-0.153 1.147,-0.688 1.224,-1.989c0.153,-3.519 0.076,-9.486 1.147,-13.923c1.836,-7.42 3.443,-10.327 4.284,-11.704c0.459,-0.765 0.918,-0.919 0.995,-0.077c0,1.683 0.153,6.732 0.841,13.464c0.536,4.972 1.224,7.88 1.76,8.798c1.53,2.677 3.366,2.754 4.896,2.754c0.994,0 2.983,-0.23 2.754,-1.989c-0.077,-0.842 0.076,-5.891 1.836,-13.235c1.147,-4.743 3.06,-9.103 3.825,-10.633c0.229,-0.612 0.382,-0.153 0.382,0c-0.153,3.289 -0.459,13.999 0.842,19.89c1.836,7.956 7.038,8.873 8.874,8.873c3.901,0 7.114,-2.983 8.185,-10.786c0.23,-1.989 -0.153,-3.442 -1.3,-3.442z"/>
  <path id="svg_3" fill="#00B0F0" d="m1077,135.3l0,-4.9c0.6,0.5 1.2,0.9 2,1.3c0.8,0.4 1.6,0.7 2.5,1c0.9,0.3 1.7,0.5 2.6,0.6c0.9,0.1 1.7,0.2 2.4,0.2c2.5,0 4.4,-0.5 5.7,-1.4c1.3,-0.9 1.9,-2.3 1.9,-4.1c0,-1 -0.2,-1.8 -0.6,-2.5c-0.4,-0.7 -1,-1.4 -1.7,-1.9c-0.7,-0.6 -1.6,-1.1 -2.6,-1.7c-1,-0.5 -2.1,-1.1 -3.2,-1.7c-1.2,-0.6 -2.4,-1.3 -3.4,-1.9c-1.1,-0.6 -2,-1.3 -2.8,-2.1c-0.8,-0.8 -1.4,-1.6 -1.9,-2.6c-0.5,-1 -0.7,-2.1 -0.7,-3.4c0,-1.6 0.4,-3 1.1,-4.2c0.7,-1.2 1.6,-2.2 2.8,-2.9c1.1,-0.8 2.4,-1.3 3.9,-1.7c1.5,-0.4 3,-0.6 4.5,-0.6c3.5,0 6,0.4 7.6,1.3l0,4.7c-2.1,-1.4 -4.7,-2.2 -8,-2.2c-0.9,0 -1.8,0.1 -2.7,0.3c-0.9,0.2 -1.7,0.5 -2.4,0.9c-0.7,0.4 -1.3,1 -1.7,1.7c-0.4,0.7 -0.7,1.5 -0.7,2.5c0,0.9 0.2,1.7 0.5,2.3c0.3,0.7 0.8,1.3 1.5,1.8c0.7,0.5 1.5,1.1 2.4,1.6c0.9,0.5 2,1.1 3.2,1.7c1.3,0.6 2.5,1.3 3.6,2c1.1,0.7 2.1,1.5 3,2.3c0.9,0.8 1.5,1.8 2,2.8c0.5,1 0.7,2.2 0.7,3.5c0,1.7 -0.3,3.2 -1,4.4c-0.7,1.2 -1.6,2.2 -2.7,2.9c-1.2,0.8 -2.5,1.3 -4,1.6c-1.5,0.3 -3.1,0.5 -4.8,0.5c-0.6,0 -1.2,0 -2.1,-0.1c-0.8,-0.1 -1.7,-0.2 -2.5,-0.4c-0.8,-0.2 -1.7,-0.4 -2.4,-0.6c-1,-0.4 -1.6,-0.7 -2,-1z"/>
  <path id="svg_4" fill="#00B0F0" d="m1122.7,136.7l-5.7,0l-11,-12.1l-0.1,0l0,12.1l-4.1,0l0,-37.4l4.1,0l0,23.7l0.1,0l10.5,-11.6l5.3,0l-11.7,12.2l12.6,13.1z"/>
  <path id="svg_5" fill="#00B0F0" d="m1146.4,111.4l-11.5,29.3c-2.1,5.2 -5,7.8 -8.7,7.8c-1,0 -1.9,-0.1 -2.6,-0.3l0,-3.6c0.9,0.3 1.7,0.4 2.4,0.4c2,0 3.5,-1.2 4.6,-3.6l2,-4.8l-9.8,-25.2l4.5,0l6.8,19.4c0.1,0.2 0.3,0.9 0.5,1.9l0.1,0c0.1,-0.4 0.2,-1 0.5,-1.9l7.1,-19.5l4.1,0l0,0.1z"/>
  <path id="svg_6" fill="#00B0F0" d="m1152.7,122.9l0,3.5c0,2.1 0.7,3.9 2,5.3c1.4,1.5 3.1,2.2 5.1,2.2c2.4,0 4.3,-0.9 5.7,-2.8c1.4,-1.9 2.1,-4.5 2.1,-7.8c0,-2.8 -0.6,-5 -1.9,-6.6c-1.3,-1.6 -3,-2.4 -5.2,-2.4c-2.3,0 -4.2,0.8 -5.6,2.5c-1.5,1.5 -2.2,3.6 -2.2,6.1zm0.1,10.1l-0.1,15.3l-4,0l0,-36.9l4,0l0,4.4l0.1,0c2,-3.4 4.9,-5 8.7,-5c3.2,0 5.8,1.1 7.6,3.4c1.8,2.3 2.7,5.3 2.7,9.1c0,4.2 -1,7.6 -3.1,10.1c-2,2.5 -4.8,3.8 -8.4,3.8c-3.2,0.1 -5.8,-1.3 -7.5,-4.2z"/>
  <path id="svg_7" fill="#00B0F0" d="m1192,121.7c0,-2.3 -0.6,-4.2 -1.7,-5.5c-1.1,-1.3 -2.6,-1.9 -4.6,-1.9c-1.9,0 -3.5,0.7 -4.8,2c-1.3,1.4 -2.1,3.1 -2.5,5.4l13.6,0zm4.1,3.4l-17.7,0c0.1,2.8 0.8,5 2.3,6.5c1.4,1.5 3.4,2.3 5.9,2.3c2.8,0 5.4,-0.9 7.8,-2.8l0,3.8c-2.2,1.6 -5.1,2.4 -8.8,2.4c-3.5,0 -6.3,-1.1 -8.4,-3.4c-2,-2.3 -3,-5.5 -3,-9.7c0,-3.9 1.1,-7.1 3.3,-9.6c2.2,-2.5 5,-3.7 8.3,-3.7c3.3,0 5.8,1.1 7.6,3.2c1.8,2.1 2.7,5.1 2.7,8.9l0,2.1l0,0z"/>
  <path id="svg_8" fill="#00B0F0" d="m1028.4,137.2c-10.1,0 -14.7,-5.1 -14.7,-8.9c0,-1.9 1.5,-3.3 3.5,-3.3c4.3,0 3.2,6.5 11.3,6.5c4.1,0 6.5,-2.5 6.5,-4.8c0,-1.4 -0.8,-3 -3.5,-3.6l-9,-2.3c-7.2,-1.8 -8.5,-5.9 -8.5,-9.6c0,-7.7 7.1,-10.5 13.8,-10.5c6.2,0 13.6,3.4 13.6,8.1c0,2 -1.7,3.1 -3.6,3.1c-3.7,0 -3.1,-5.2 -10.5,-5.2c-3.7,0 -5.6,1.7 -5.6,4.1c0,2.4 2.9,3.2 5.4,3.8l6.6,1.5c7.3,1.6 9.2,5.9 9.2,10c0,6.2 -4.9,11.1 -14.5,11.1zm27.9,-13.4c0.3,-1.6 0.4,-3.3 0.4,-5c0,-15.8 -12.7,-28.6 -28.4,-28.6c-1.7,0 -3.3,0.1 -4.9,0.4c-2.5,-1.4 -5.3,-2.2 -8.4,-2.2c-9.3,0 -16.9,7.6 -16.9,17c0,3.1 0.8,5.9 2.2,8.4c-0.3,1.6 -0.4,3.3 -0.4,5c0,15.8 12.7,28.6 28.4,28.6c1.7,0 3.3,-0.1 4.9,-0.4c2.5,1.4 5.3,2.2 8.4,2.2c9.3,0 16.9,-7.6 16.9,-17c0,-3 -0.8,-5.9 -2.2,-8.4z"/>
 </g>
</svg>