<svg width="441" height="281" xmlns="http://www.w3.org/2000/svg">

 <g>
  <title>background</title>
  <rect fill="none" id="canvas_background" height="402" width="582" y="-1" x="-1"/>
 </g>
 <g>
  <title>Layer 1</title>
  <path id="svg_1" fill="#000000" d="m432.9,280.525l-424.0001,0c-4.4,0 -8,-3.6 -8,-8l0,-264.00034c0,-4.4 3.6,-8 8,-8l424.0001,0c4.4,0 8,3.6 8,8l0,264.00034c0,4.4 -3.5,8 -8,8z"/>
  <path id="svg_2" fill="white" d="m135.499,111.485c-0.049,-0.441 -0.441,-0.637 -0.735,-0.637c-0.294,0 -6.715,-0.491 -6.715,-0.491c0,0 -4.46,-4.46 -4.999,-4.901c-0.49,-0.49 -1.421,-0.343 -1.813,-0.245c-0.049,0 -0.98,0.294 -2.5,0.784c-1.519,-4.362 -4.117,-8.3315 -8.773,-8.3315l-0.441,0c-1.274,-1.6664 -2.941,-2.4506 -4.313,-2.4506c-10.7825,0 -15.9777,13.4781 -17.5951,20.3401c-4.215,1.323 -7.2047,2.205 -7.5478,2.352c-2.3525,0.735 -2.4015,0.784 -2.6956,2.99c-0.2451,1.666 -6.3715,49.061 -6.3715,49.061l47.688,8.92l25.878,-5.588c0.049,-0.098 -9.018,-61.362 -9.067,-61.803l0,0zm-19.408,-4.803c-1.177,0.343 -2.598,0.784 -4.019,1.274l0,-0.882c0,-2.647 -0.343,-4.803 -0.981,-6.519c2.451,0.294 3.97,2.99 5,6.127zm-7.989,-5.588c0.637,1.667 1.078,4.019 1.078,7.254l0,0.49c-2.647,0.833 -5.44,1.667 -8.332,2.598c1.617,-6.176 4.705,-9.214 7.254,-10.342zm-3.137,-3.0384c0.49,0 0.98,0.196 1.372,0.4901c-3.479,1.6173 -7.1553,5.6853 -8.6747,13.9193c-2.3035,0.735 -4.5091,1.372 -6.6166,2.058c1.7645,-6.273 6.1755,-16.4674 13.9193,-16.4674z"/>
  <path id="svg_3" fill="#8E8E8E" d="m134.764,110.75c-0.294,0 -6.714,-0.491 -6.714,-0.491c0,0 -4.46,-4.46 -5,-4.901c-0.196,-0.196 -0.441,-0.294 -0.637,-0.294l-3.578,73.812l25.879,-5.588c0,0 -9.068,-61.362 -9.117,-61.803c-0.196,-0.441 -0.539,-0.637 -0.833,-0.735l0,0z"/>
  <path id="svg_4" fill="black" d="m109.964,125.061l-3.137,9.459c0,0 -2.842,-1.519 -6.224,-1.519c-5.0483,0 -5.2933,3.186 -5.2933,3.97c0,4.313 11.2723,5.979 11.2723,16.125c0,7.989 -5.048,13.135 -11.8605,13.135c-8.2339,0 -12.3509,-5.097 -12.3509,-5.097l2.2055,-7.254c0,0 4.3131,3.725 7.9399,3.725c2.4016,0 3.3818,-1.863 3.3818,-3.235c0,-5.636 -9.2142,-5.881 -9.2142,-15.194c0,-7.792 5.5874,-15.34 16.9094,-15.34c4.215,-0.049 6.371,1.225 6.371,1.225l0,0z"/>
  <path id="svg_5" fill="white" d="m174.758,142.852c-2.598,-1.372 -3.921,-2.597 -3.921,-4.215c0,-2.058 1.862,-3.382 4.754,-3.382c3.382,0 6.371,1.373 6.371,1.373l2.353,-7.205c0,0 -2.156,-1.666 -8.528,-1.666c-8.871,0 -15.047,5.097 -15.047,12.253c0,4.067 2.892,7.155 6.715,9.361c3.137,1.715 4.215,2.989 4.215,4.852c0,1.911 -1.568,3.48 -4.46,3.48c-4.264,0 -8.332,-2.206 -8.332,-2.206l-2.5,7.205c0,0 3.725,2.499 9.999,2.499c9.116,0 15.733,-4.509 15.733,-12.596c-0.099,-4.411 -3.382,-7.449 -7.352,-9.753l0,0zm36.366,-15.193c-4.509,0 -8.038,2.156 -10.733,5.391l-0.098,-0.049l3.921,-20.389l-10.146,0l-9.9,51.952l10.145,0l3.382,-17.742c1.324,-6.714 4.803,-10.88 8.038,-10.88c2.304,0 3.186,1.568 3.186,3.773c0,1.373 -0.098,3.137 -0.441,4.51l-3.823,20.339l10.145,0l3.97,-20.977c0.441,-2.205 0.735,-4.852 0.735,-6.665c-0.049,-5.833 -3.038,-9.263 -8.381,-9.263l0,0zm31.319,0c-12.253,0 -20.34,11.027 -20.34,23.329c0,7.842 4.852,14.213 13.968,14.213c12.008,0 20.095,-10.733 20.095,-23.329c0.049,-7.303 -4.166,-14.213 -13.723,-14.213l0,0zm-4.999,29.799c-3.48,0 -4.902,-2.941 -4.902,-6.666c0,-5.832 2.99,-15.292 8.528,-15.292c3.578,0 4.804,3.137 4.804,6.127c0,6.224 -3.088,15.831 -8.43,15.831zm44.747,-29.799c-6.861,0 -10.733,6.077 -10.733,6.077l-0.098,0l0.588,-5.44l-9.018,0c-0.441,3.676 -1.275,9.312 -2.059,13.478l-7.008,37.2l10.145,0l2.843,-15.047l0.245,0c0,0 2.107,1.323 5.93,1.323c11.959,0 19.752,-12.252 19.752,-24.603c-0.049,-6.862 -3.137,-12.988 -10.587,-12.988l0,0zm-9.704,29.897c-2.647,0 -4.215,-1.52 -4.215,-1.52l1.666,-9.459c1.177,-6.371 4.509,-10.537 8.038,-10.537c3.137,0 4.068,2.891 4.068,5.587c0.049,6.567 -3.872,15.929 -9.557,15.929l0,0zm34.749,-44.454c-3.235,0 -5.832,2.598 -5.832,5.882c0,2.989 1.911,5.097 4.803,5.097l0.098,0c3.186,0 5.881,-2.157 5.93,-5.882c0.049,-2.989 -1.96,-5.097 -4.999,-5.097l0,0zm-14.213,51.413l10.145,0l6.862,-36.072l-10.195,0l-6.812,36.072zm42.885,-36.121l-7.058,0l0.343,-1.667c0.588,-3.479 2.647,-6.518 6.078,-6.518c1.813,0 3.235,0.539 3.235,0.539l1.96,-7.989c0,0 -1.715,-0.882 -5.538,-0.882c-3.578,0 -7.205,1.029 -9.95,3.382c-3.479,2.94 -5.097,7.204 -5.881,11.517l-0.294,1.667l-4.754,0l-1.52,7.695l4.755,0l-5.392,28.426l10.146,0l5.391,-28.426l7.009,0l1.47,-7.744zm24.457,0.049c0,0 -6.372,16.027 -9.165,24.8l-0.098,0c-0.197,-2.843 -2.5,-24.8 -2.5,-24.8l-10.685,0l6.127,33.034c0.098,0.735 0.049,1.176 -0.245,1.666c-1.176,2.304 -3.186,4.509 -5.539,6.126c-1.911,1.373 -4.067,2.304 -5.783,2.892l2.843,8.626c2.058,-0.441 6.371,-2.156 9.949,-5.538c4.607,-4.313 8.92,-11.028 13.331,-20.144l12.4,-26.711l-10.635,0l0,0.049z"/>
 </g>
</svg>